<?xml version="1.0" standalone="no"?>
<!DOCTYPE svg PUBLIC "-//W3C//DTD SVG 20010904//EN"
 "http://www.w3.org/TR/2001/REC-SVG-20010904/DTD/svg10.dtd">
<svg version="1.0" xmlns="http://www.w3.org/2000/svg"
 width="500.000000pt" height="500.000000pt" viewBox="0 0 500.000000 500.000000"
 preserveAspectRatio="xMidYMid meet">

<g transform="translate(0.000000,500.000000) scale(0.100000,-0.100000)"
fill="#000000" stroke="none">
<path d="M406 2938 c184 -458 430 -1070 547 -1360 l212 -528 257 0 256 0 30
73 c71 172 1062 2638 1062 2642 0 10 -476 5 -513 -6 -65 -18 -102 -60 -141
-162 -124 -324 -589 -1579 -614 -1657 -16 -52 -38 -132 -48 -177 -11 -46 -22
-83 -25 -83 -4 0 -10 16 -13 34 -16 87 -99 319 -394 1104 -281 751 -320 849
-355 888 -24 27 -52 47 -75 54 -21 5 -144 10 -279 10 l-242 0 335 -832z"/>
<path d="M3275 3551 c-45 -19 -55 -46 -110 -306 -30 -142 -55 -261 -55 -265 0
-7 -63 -20 -242 -51 l-68 -11 0 -125 c0 -124 0 -125 29 -154 29 -29 31 -29
140 -29 l110 0 3 -592 c3 -542 5 -598 22 -648 59 -177 162 -279 331 -329 70
-21 92 -23 224 -19 129 5 157 9 241 36 88 29 195 84 229 117 12 12 3 31 -59
132 -82 132 -115 173 -142 173 -10 0 -41 -12 -68 -26 -59 -31 -139 -35 -188
-10 -18 9 -41 34 -52 56 -19 38 -20 58 -20 575 l0 535 250 0 250 0 0 180 0
180 -250 0 -250 0 0 295 0 295 -152 -1 c-84 0 -162 -4 -173 -8z"/>
<path d="M4543 1610 c-90 -19 -174 -84 -215 -169 -32 -65 -31 -175 1 -248 27
-61 83 -116 150 -146 66 -31 187 -30 256 1 184 84 233 329 94 472 -71 73 -188
110 -286 90z"/>
</g>
</svg>
